HIERARCHY
ROOT simHips
{
  OFFSET 1.87914 98.8603 -7.92913
  CHANNELS 6 Xposition Yposition Zposition Zrotation Xrotation Yrotation
  JOINT simSpine
  {
    OFFSET -0.000355721 21.3001 -0.016921
    CHANNELS 3 Zrotation Xrotation Yrotation
    JOINT simLeftArm
    {
      OFFSET 13.5181 21.3012 0
      CHANNELS 3 Zrotation Xrotation Yrotation
      JOINT simLeftForeArm
      {
        OFFSET 24.5783 0 0
        CHANNELS 3 Zrotation Xrotation Yrotation
        JOINT simLeftHand
        {
          OFFSET 24.5783 0 0
          CHANNELS 3 Zrotation Xrotation Yrotation
          End Site
          {
            OFFSET 7.32568 1.52588e-005 0.0169305
          }
        }
      }
    }
    JOINT simHead
    {
      OFFSET 0 27.4458 -0.00489235
      CHANNELS 3 Zrotation Xrotation Yrotation
      End Site
      {
        OFFSET 0 0 0
      }
    }
    JOINT simRightArm
    {
      OFFSET -13.5174 21.3012 0
      CHANNELS 3 Zrotation Xrotation Yrotation
      JOINT simRightForeArm
      {
        OFFSET -24.5783 0 0
        CHANNELS 3 Zrotation Xrotation Yrotation
        JOINT simRightHand
        {
          OFFSET -24.5783 0 0
          CHANNELS 3 Zrotation Xrotation Yrotation
          End Site
          {
            OFFSET -7.32568 1.52588e-005 0.0169305
          }
        }
      }
    }
  }
  JOINT simRightUpLeg
  {
    OFFSET -8.44614 -9.41038 0.835684
    CHANNELS 3 Zrotation Xrotation Yrotation
    JOINT simRightLeg
    {
      OFFSET 0 -40.9639 0
      CHANNELS 3 Zrotation Xrotation Yrotation
      JOINT simRightFoot
      {
        OFFSET 0 -40.9639 0
        CHANNELS 3 Zrotation Xrotation Yrotation
        End Site
        {
          OFFSET 0.50614 -9.67405 14.6709
        }
      }
    }
  }
  JOINT simLeftUpLeg
  {
    OFFSET 8.44614 -9.41038 0.835684
    CHANNELS 3 Zrotation Xrotation Yrotation
    JOINT simLeftLeg
    {
      OFFSET 0 -40.9639 0
      CHANNELS 3 Zrotation Xrotation Yrotation
      JOINT simLeftFoot
      {
        OFFSET 0 -40.9639 0
        CHANNELS 3 Zrotation Xrotation Yrotation
        End Site
        {
          OFFSET -0.50614 -9.67405 14.6709
        }
      }
    }
  }
}
MOTION
Frames:	12
Frame Time:	0.0333333
1.87914 98.8603 -7.92913 -1.9982 0.110042 -9.28938 -3.66098 3.2415 -1.11886 -71.088 -19.4597 -54.1473 -7.59589 1.21323 -14.7344 4.28975 -4.65849 -11.9631 0.733988 -5.84695 6.80604 86.1876 4.01754 13.6904 0.357836 0.0173965 2.89165 0.40594 11.7249 4.43157 -1.18983 -18.5924 0.380333 -1.7074 34.5434 7.23121 2.64957 -7.22056 2.45673 7.63965 -16.9289 5.15734 -7.74591 37.6177 2.81255 2.66782 -11.3611 5.13352 
1.9715 98.874 -7.92572 -1.94542 0.121512 -9.09496 -3.71229 3.31721 -1.23755 -71.0604 -19.4305 -54.029 -8.06635 1.32249 -15.2029 4.69177 -4.29757 -11.9781 0.570186 -5.77573 6.86994 86.0986 3.97923 13.6982 0.344219 0.0172656 2.8844 0.493589 11.5708 4.39109 -1.46093 -18.5732 0.17167 -1.52232 34.4937 7.14828 2.64968 -7.20363 2.47934 7.36887 -16.9888 4.93871 -7.56505 37.57 2.70482 2.67595 -11.3054 5.23517 
2.05429 98.8801 -7.92276 -1.89313 0.133994 -8.83236 -3.72759 3.38281 -1.34592 -71.1152 -19.3574 -53.934 -8.51147 1.42956 -15.6462 5.37992 -3.66626 -12.0909 0.362127 -5.63374 7.01877 86.0142 3.95853 13.6868 0.331011 0.0171497 2.87897 0.576702 11.3385 4.301 -1.70342 -18.5541 -0.0590765 -1.39746 34.473 7.10172 2.67415 -7.21766 2.40939 7.12213 -17.0649 4.70842 -7.38861 37.5528 2.58527 2.69586 -11.2646 5.1423 
2.11154 98.8783 -7.91926 -1.86611 0.161805 -8.56994 -3.74282 3.42216 -1.4194 -71.2391 -19.2662 -53.8619 -8.93808 1.53577 -16.0716 6.22871 -2.87315 -12.2942 0.17186 -5.41873 7.2209 85.9821 3.97431 13.65 0.319674 0.0170662 2.87212 0.624187 10.99 4.14026 -1.87385 -18.5642 -0.303705 -1.33718 34.4858 7.12138 2.69497 -7.24833 2.31066 6.96285 -17.1662 4.5385 -7.2658 37.5771 2.4661 2.7253 -11.2425 5.04628 
2.13978 98.8741 -7.9147 -1.8672 0.206634 -8.33324 -3.78576 3.4227 -1.44562 -71.4366 -19.212 -53.7814 -9.38756 1.65112 -16.5193 7.09134 -2.05222 -12.5693 0.0493197 -5.14368 7.41478 86.0286 4.04426 13.5857 0.312665 0.0170324 2.86918 0.62179 10.4951 3.89529 -1.97708 -18.5767 -0.503474 -1.28224 34.4891 7.11317 2.69911 -7.27815 2.25111 6.88884 -17.2862 4.45472 -7.19903 37.6213 2.33899 2.75779 -11.2234 5.10495 
2.14779 98.8766 -7.90805 -1.88497 0.25906 -8.11182 -3.8667 3.37961 -1.42697 -71.7395 -19.2649 -53.6461 -9.90939 1.78976 -17.039 7.83038 -1.30398 -12.9015 0.0159738 -4.83773 7.53338 86.1483 4.17653 13.5083 0.313354 0.0170658 2.8701 0.578227 9.85493 3.58359 -2.02943 -18.5868 -0.584229 -1.19129 34.4701 6.97061 2.7039 -7.29098 2.24583 6.86266 -17.3982 4.43036 -7.1559 37.6439 2.19037 2.78935 -11.1884 5.27878 
2.14759 98.8931 -7.89661 -1.90534 0.308315 -7.89926 -3.97698 3.29644 -1.37676 -72.1936 -19.4957 -53.4069 -10.5464 1.96594 -17.6737 8.34553 -0.644077 -13.2964 0.0617854 -4.54298 7.5318 86.3076 4.36455 13.4353 0.324705 0.0171836 2.8769 0.525728 9.11771 3.24793 -2.0369 -18.556 -0.536305 -1.09675 34.3855 6.71256 2.73773 -7.27807 2.25118 6.85252 -17.4645 4.42466 -7.10433 37.6047 2.02112 2.81926 -11.1305 5.39143 
2.14765 98.9263 -7.87693 -1.91809 0.350067 -7.71197 -4.09556 3.18241 -1.31166 -72.8336 -19.9557 -53.0234 -11.328 2.1925 -18.4525 8.59395 0.0128931 -13.7869 0.153393 -4.3023 7.40763 86.4577 4.58712 13.3895 0.349201 0.0174034 2.88831 0.507305 8.37582 2.95655 -1.99717 -18.4698 -0.421713 -1.08045 34.2166 6.46674 2.81798 -7.23618 2.22153 6.84259 -17.4636 4.41355 -7.02924 37.487 1.85535 2.84409 -11.0547 5.29684 
2.15197 98.9723 -7.84764 -1.91864 0.386667 -7.57319 -4.19774 3.04648 -1.24405 -73.6553 -20.6597 -52.4639 -12.2756 2.48237 -19.3959 8.60119 0.820894 -14.4217 0.246969 -4.13893 7.20599 86.5506 4.81398 13.3861 0.387416 0.0177426 2.90461 0.561107 7.74006 2.7779 -1.9164 -18.349 -0.294913 -1.17989 33.9867 6.31919 2.9411 -7.17165 2.1501 6.82333 -17.4009 4.38962 -6.93323 37.3028 1.73102 2.85616 -10.9727 4.99479 
2.16119 99.022 -7.81101 -1.90813 0.422376 -7.48837 -4.2628 2.89229 -1.17803 -74.5989 -21.5727 -51.7012 -13.4089 2.85162 -20.5247 8.45876 1.93164 -15.2438 0.3005 -4.03654 7.00586 86.5513 5.0146 13.4264 0.437001 0.0182363 2.92733 0.703731 7.30062 2.75559 -1.82672 -18.2394 -0.171433 -1.33004 33.7567 6.24476 3.07471 -7.09881 2.05933 6.78206 -17.3113 4.3485 -6.82964 37.0921 1.67786 2.84729 -10.8958 4.64664 
2.17352 99.0652 -7.77149 -1.89128 0.459158 -7.43845 -4.27901 2.716 -1.10951 -75.5459 -22.615 -50.7009 -14.7541 3.32204 -21.8646 8.30555 3.41875 -16.2708 0.283929 -3.93607 6.89128 86.4469 5.16654 13.4991 0.491412 0.0189004 2.95344 0.920858 7.09142 2.89199 -1.78397 -18.1433 -0.0752673 -1.41011 33.5521 6.18243 3.1656 -7.03595 1.97991 6.70671 -17.2425 4.28301 -6.73334 36.9083 1.69854 2.81503 -10.8307 4.46475 
2.18602 99.0971 -7.73234 -1.87321 0.496611 -7.39276 -4.24561 2.50846 -1.02983 -76.338 -23.6758 -49.4176 -16.3361 3.92096 -23.4412 8.29053 5.23511 -17.4852 0.186357 -3.75547 6.91808 86.247 5.25991 13.5828 0.540755 0.0196668 2.97652 1.17132 7.07385 3.14197 -1.82384 -18.0851 -0.0481753 -1.35608 33.4125 6.11992 3.17912 -6.99359 1.92788 6.59536 -17.2153 4.18969 -6.64315 36.7746 1.75915 2.76279 -10.7787 4.53966 
